# xmcd CD database file
#
# Track frame offsets:
#	150
#	21419
#	47894
#
# Disc length: 884 seconds
#
# Revision: 0
# Processed by: cddbd v1.5.1PL0 Copyright (c) Steve Scherf et al.
# Submitted via: CDex 1.50beta8
#
DISCID=22037203
DTITLE=MACKA-CHIN - ORIENTAL MACKA
DYEAR=2002
DGENRE=Hip Hop
TTITLE0=NO.253-9981(single version)
TTITLE1=交信(SINGLE VERSION)feat.TWIGY
TTITLE2=ナイトキャンプランページ
EXTD=YEAR: 2002
EXTT0=
EXTT1=
EXTT2=
PLAYORDER=
